<svg xmlns="http://www.w3.org/2000/svg" version="1.1" xmlns:xlink="http://www.w3.org/1999/xlink" xmlns:svgjs="http://svgjs.com/svgjs" width="340" height="325"><svg width="340" height="325" viewBox="0 0 340 325" fill="none" xmlns="http://www.w3.org/2000/svg">
<g clip-path="url(#clip0_360_2095)">
<g filter="url(#filter0_ii_360_2095)">
<path d="M331 133C331 119.745 320.255 109 307 109H115C101.745 109 91 119.745 91 133V293C91 306.255 101.745 317 115 317H307C320.255 317 331 306.255 331 293V133Z" fill="#8A7DD8"></path>
</g>
<path d="M331 133C331 119.745 320.255 109 307 109H115C101.745 109 91 119.745 91 133V293C91 306.255 101.745 317 115 317H307C320.255 317 331 306.255 331 293V133Z" stroke="#1F2024" stroke-width="8"></path>
<path d="M173.5 36.0008C194.975 8.50079 205.53 40.4476 238.162 45.0431C248.918 46.5577 253.898 40.7319 258 30.7628" stroke="#1F2024" stroke-width="8" stroke-linecap="round"></path>
<path d="M173.5 35.9998C194.975 8.49976 204.826 44.4043 237.459 48.9998C248.214 50.5144 253.898 40.7309 258 30.7617" stroke="#1F2024" stroke-width="8" stroke-linecap="round"></path>
<g filter="url(#filter1_i_360_2095)">
<path d="M231 133C231 119.745 220.255 109 207 109H31C17.7452 109 7.00002 119.745 7.00002 133V293C7.00002 306.255 17.7452 317 31 317H207C220.255 317 231 306.255 231 293V133Z" fill="#AEA5EE"></path>
</g>
<path d="M231 133C231 119.745 220.255 109 207 109H31C17.7452 109 7.00002 119.745 7.00002 133V293C7.00002 306.255 17.7452 317 31 317H207C220.255 317 231 306.255 231 293V133Z" stroke="#1F2024" stroke-width="8"></path>
<path d="M103 113H65L121 313H159L103 113Z" fill="white" fill-opacity="0.5"></path>
<path d="M118 113H112L168 313H174L118 113Z" fill="white" fill-opacity="0.5"></path>
<g filter="url(#filter2_ii_360_2095)">
<path d="M127 253.614C127 252.545 126.159 251.665 125.091 251.616L48.0913 248.096C46.9521 248.044 46 248.953 46 250.094V271C46 272.105 46.8954 273 48 273H125C126.105 273 127 272.105 127 271V253.614Z" fill="#DE7E25"></path>
</g>
<path d="M127 253.614C127 252.545 126.159 251.665 125.091 251.616L48.0913 248.096C46.9521 248.044 46 248.953 46 250.094V271C46 272.105 46.8954 273 48 273H125C126.105 273 127 272.105 127 271V253.614Z" stroke="#1F2024" stroke-width="8" stroke-linejoin="round"></path>
<g filter="url(#filter3_ii_360_2095)">
<path fill-rule="evenodd" clip-rule="evenodd" d="M24 225H65V273H24H23V272.971C12.4189 272.345 4 261.852 4 249C4 236.148 12.4189 225.655 23 225.029V225H24Z" fill="#F2C95C"></path>
</g>
<path d="M65 225V221C67.2091 221 69 222.791 69 225H65ZM65 273H69C69 275.209 67.2091 277 65 277V273ZM23 273V277C20.7909 277 19 275.209 19 273H23ZM23 272.971L23.2359 268.977C25.3498 269.102 27 270.853 27 272.971H23ZM23 225.029H27C27 227.147 25.3498 228.898 23.2359 229.023L23 225.029ZM23 225H19C19 222.791 20.7909 221 23 221V225ZM65 229H24V221H65V229ZM61 273V225H69V273H61ZM24 269H65V277H24V269ZM23 269H24V277H23V269ZM27 272.971V273H19V272.971H27ZM8 249C8 260.376 15.3541 268.512 23.2359 268.977L22.7641 276.964C9.4837 276.179 0 263.329 0 249H8ZM23.2359 229.023C15.3541 229.488 8 237.624 8 249H0C0 234.671 9.4837 221.821 22.7641 221.036L23.2359 229.023ZM27 225V225.029H19V225H27ZM24 229H23V221H24V229Z" fill="#1F2024"></path>
<g filter="url(#filter4_ii_360_2095)">
<ellipse cx="20" cy="24" rx="20" ry="24" transform="matrix(-1 0 0 1 83 225)" fill="#EDB146"></ellipse>
</g>
<ellipse cx="20" cy="24" rx="20" ry="24" transform="matrix(-1 0 0 1 83 225)" stroke="#1F2024" stroke-width="8" stroke-linejoin="round"></ellipse>
<circle cx="8" cy="8" r="8" transform="matrix(-1 0 0 1 71 241)" fill="#1F2024"></circle>
<g filter="url(#filter5_dii_360_2095)">
<circle cx="19.5" cy="19.5" r="19.5" transform="matrix(-1 0 0 1 213 292)" fill="#75D1C1"></circle>
<circle cx="19.5" cy="19.5" r="15.5" transform="matrix(-1 0 0 1 213 292)" stroke="#1F2024" stroke-width="8" stroke-linejoin="round"></circle>
</g>
<g filter="url(#filter6_dii_360_2095)">
<path d="M226.605 156.014C222.381 160.495 224.592 167.869 230.585 169.287L260.924 176.464C266.917 177.882 272.198 172.281 270.429 166.382L261.475 136.518C259.706 130.619 252.215 128.847 247.991 133.328L226.605 156.014Z" fill="#FE204F"></path>
<path d="M229.516 158.758C227.404 160.999 228.509 164.685 231.506 165.394L261.845 172.572C264.842 173.281 267.482 170.48 266.598 167.53L257.644 137.667C256.759 134.717 253.014 133.831 250.902 136.072L229.516 158.758Z" stroke="#1F2024" stroke-width="8" stroke-linejoin="round"></path>
</g>
<g filter="url(#filter7_dii_360_2095)">
<path d="M274.268 283.905C269.758 288.099 271.478 295.602 277.365 297.411L307.166 306.569C313.053 308.379 318.691 303.137 317.314 297.134L310.345 266.746C308.968 260.744 301.61 258.482 297.1 262.676L274.268 283.905Z" fill="#F9E174"></path>
<path d="M276.991 286.835C274.736 288.931 275.597 292.683 278.54 293.588L308.341 302.746C311.285 303.65 314.104 301.03 313.415 298.028L306.446 267.64C305.758 264.639 302.078 263.508 299.823 265.605L276.991 286.835Z" stroke="#1F2024" stroke-width="8" stroke-linejoin="round"></path>
</g>
<g filter="url(#filter8_dii_360_2095)">
<circle cx="19.5" cy="19.5" r="19.5" transform="matrix(-1 0 0 1 133 23)" fill="#75D1C1"></circle>
<circle cx="19.5" cy="19.5" r="15.5" transform="matrix(-1 0 0 1 133 23)" stroke="#1F2024" stroke-width="8" stroke-linejoin="round"></circle>
</g>
<g filter="url(#filter9_dii_360_2095)">
<path d="M279.966 60.4449C273.807 60.4449 269.958 67.1115 273.038 72.4449L288.626 99.4449C291.705 104.778 299.403 104.778 302.482 99.4449L318.071 72.4449C321.15 67.1115 317.301 60.4449 311.143 60.4449L279.966 60.4449Z" fill="#2477D5"></path>
<path d="M279.966 64.4449C276.887 64.4449 274.962 67.7782 276.502 70.4449L292.09 97.4449C293.63 100.112 297.479 100.112 299.018 97.4449L314.607 70.4449C316.146 67.7782 314.222 64.4449 311.143 64.4449L279.966 64.4449Z" stroke="#1F2024" stroke-width="8" stroke-linejoin="round"></path>
</g>
<path d="M331 208C331 203.582 327.418 200 323 200H263C258.582 200 255 203.582 255 208V248C255 252.418 258.582 256 263 256H323C327.418 256 331 252.418 331 248V208Z" fill="#1F2024" fill-opacity="0.16"></path>
<g filter="url(#filter10_ii_360_2095)">
<path d="M335 196C335 191.582 331.418 188 327 188H262C257.582 188 254 191.582 254 196V236C254 240.418 257.582 244 262 244H327C331.418 244 335 240.418 335 236V196Z" fill="#8A7DD8"></path>
</g>
<path d="M335 196C335 191.582 331.418 188 327 188H262C257.582 188 254 191.582 254 196V236C254 240.418 257.582 244 262 244H327C331.418 244 335 240.418 335 236V196Z" stroke="#1F2024" stroke-width="8"></path>
<g filter="url(#filter11_i_360_2095)">
<path d="M278 196C278 191.582 274.418 188 270 188H262C257.582 188 254 191.582 254 196V236C254 240.418 257.582 244 262 244H270C274.418 244 278 240.418 278 236V196Z" fill="#AEA5EE"></path>
</g>
<path d="M278 196C278 191.582 274.418 188 270 188H262C257.582 188 254 191.582 254 196V236C254 240.418 257.582 244 262 244H270C274.418 244 278 240.418 278 236V196Z" stroke="#1F2024" stroke-width="8"></path>
<rect width="8" height="20" rx="4" transform="matrix(-1 0 0 1 318 207)" fill="#1F2024"></rect>
<rect width="8" height="20" rx="4" transform="matrix(-1 0 0 1 306 207)" fill="#1F2024"></rect>
<path d="M144.456 210.1C156.215 197.231 176.832 196.249 189.581 210.138C191.821 212.58 197.06 212.24 199.501 210C202.481 207.265 201.056 199.5 197.158 195.755C187.442 186.418 175.178 184 163.904 185.921C152.785 187.816 142.339 193.946 135.422 202.203C134.971 202.735 134.628 203.325 134.392 203.945C134.092 204.733 133.966 205.567 134.009 206.391C134.09 207.955 134.78 209.482 136.043 210.59C136.575 211.058 137.168 211.414 137.792 211.661C138.643 211.998 139.55 212.131 140.442 212.065C141.934 211.955 143.384 211.29 144.456 210.1Z" fill="#1F2024"></path>
<path d="M90.5437 210.1C78.7851 197.231 58.1676 196.249 45.4194 210.138C43.1787 212.58 37.94 212.24 35.4987 210C32.5188 207.265 33.9444 199.5 37.8417 195.755C47.5579 186.418 59.822 184 71.0957 185.921C82.2148 187.816 92.6614 193.946 99.5776 202.203C100.029 202.735 100.372 203.325 100.608 203.945C100.908 204.733 101.034 205.567 100.991 206.391C100.91 207.955 100.22 209.482 98.9574 210.59C98.4252 211.058 97.8324 211.414 97.2079 211.661C96.3572 211.998 95.45 212.131 94.5581 212.065C93.0655 211.955 91.6155 211.29 90.5437 210.1Z" fill="#1F2024"></path>
<path d="M135 262.695C121.001 258 121 244 135 240" stroke="#1F2024" stroke-width="12" stroke-linecap="round"></path>
<path d="M135 285.695C121.001 281 121 267 135 263" stroke="#1F2024" stroke-width="12" stroke-linecap="round"></path>
<g filter="url(#filter12_dii_360_2095)">
<path d="M28.2675 80.9054C23.7575 85.0989 25.4783 92.6021 31.365 94.4112L61.1665 103.569C67.0532 105.379 72.6907 100.137 71.3141 94.1341L64.3447 63.7461C62.968 57.7436 55.6097 55.4823 51.0996 59.6758L28.2675 80.9054Z" fill="#F9E174"></path>
<path d="M30.9913 83.8348C28.7363 85.9315 29.5967 89.6831 32.5401 90.5876L62.3415 99.746C65.2848 100.65 68.1036 98.0296 67.4153 95.0283L60.4459 64.6403C59.7576 61.639 56.0784 60.5084 53.8234 62.6051L30.9913 83.8348Z" stroke="#1F2024" stroke-width="8" stroke-linejoin="round"></path>
</g>
<g filter="url(#filter13_dii_360_2095)">
<circle cx="19.5" cy="19.5" r="19.5" transform="matrix(-1 0 0 1 39 140)" fill="#75D1C1"></circle>
<circle cx="19.5" cy="19.5" r="15.5" transform="matrix(-1 0 0 1 39 140)" stroke="#1F2024" stroke-width="8" stroke-linejoin="round"></circle>
</g>
<path d="M172.5 36L115.775 109.5H229.225L172.5 36Z" fill="#4795E0" stroke="#1F2024" stroke-width="8" stroke-linejoin="round"></path>
<mask id="SvgjsMask1015" style="mask-type:alpha" maskUnits="userSpaceOnUse" x="111" y="32" width="123" height="82">
<path d="M172.5 36L115.775 109.5H229.225L172.5 36Z" fill="#F9E174" stroke="#1F2024" stroke-width="8" stroke-linejoin="round"></path>
</mask>
<g mask="url(#mask0_360_2095)">
<path d="M146.5 72L212 87.2817L224 103L136 83.7887L146.5 72Z" fill="#F2C95C"></path>
<path d="M159.996 50L192.501 58.5L204.418 74.5L149.568 62L159.996 50Z" fill="#F2C95C"></path>
<path d="M128.572 94L184.5 107.5L191 121L118 105.571L128.572 94Z" fill="#F2C95C"></path>
<path d="M172.5 36L115.775 109.5H229.225L172.5 36Z" stroke="#1F2024" stroke-width="8" stroke-linejoin="round"></path>
<path d="M165 64L149.883 86.5M143.5 96L144.5 94.5116" stroke="white" stroke-width="8" stroke-linecap="round"></path>
<path d="M190.5 107.5L171.5 40L175 41.5L226.5 107.5H190.5Z" fill="#1F2024" fill-opacity="0.35"></path>
</g>
</g>
<defs>
<filter id="SvgjsFilter1014" x="87" y="105" width="248" height="216" filterUnits="userSpaceOnUse" color-interpolation-filters="sRGB">
<feFlood flood-opacity="0" result="BackgroundImageFix"></feFlood>
<feBlend mode="normal" in="SourceGraphic" in2="BackgroundImageFix" result="shape"></feBlend>
<feColorMatrix in="SourceAlpha" type="matrix" values="0 0 0 0 0 0 0 0 0 0 0 0 0 0 0 0 0 0 127 0" result="hardAlpha"></feColorMatrix>
<feOffset dy="-16"></feOffset>
<feComposite in2="hardAlpha" operator="arithmetic" k2="-1" k3="1"></feComposite>
<feColorMatrix type="matrix" values="0 0 0 0 0 0 0 0 0 0 0 0 0 0 0 0 0 0 0.25 0"></feColorMatrix>
<feBlend mode="normal" in2="shape" result="effect1_innerShadow_360_2095"></feBlend>
<feColorMatrix in="SourceAlpha" type="matrix" values="0 0 0 0 0 0 0 0 0 0 0 0 0 0 0 0 0 0 127 0" result="hardAlpha"></feColorMatrix>
<feOffset dy="16"></feOffset>
<feComposite in2="hardAlpha" operator="arithmetic" k2="-1" k3="1"></feComposite>
<feColorMatrix type="matrix" values="0 0 0 0 1 0 0 0 0 1 0 0 0 0 1 0 0 0 0.25 0"></feColorMatrix>
<feBlend mode="normal" in2="effect1_innerShadow_360_2095" result="effect2_innerShadow_360_2095"></feBlend>
</filter>
<filter id="SvgjsFilter1013" x="3" y="105" width="232" height="216" filterUnits="userSpaceOnUse" color-interpolation-filters="sRGB">
<feFlood flood-opacity="0" result="BackgroundImageFix"></feFlood>
<feBlend mode="normal" in="SourceGraphic" in2="BackgroundImageFix" result="shape"></feBlend>
<feColorMatrix in="SourceAlpha" type="matrix" values="0 0 0 0 0 0 0 0 0 0 0 0 0 0 0 0 0 0 127 0" result="hardAlpha"></feColorMatrix>
<feOffset dx="-24" dy="8"></feOffset>
<feComposite in2="hardAlpha" operator="arithmetic" k2="-1" k3="1"></feComposite>
<feColorMatrix type="matrix" values="0 0 0 0 1 0 0 0 0 1 0 0 0 0 1 0 0 0 0.25 0"></feColorMatrix>
<feBlend mode="normal" in2="shape" result="effect1_innerShadow_360_2095"></feBlend>
</filter>
<filter id="SvgjsFilter1012" x="42" y="244.094" width="89" height="32.9062" filterUnits="userSpaceOnUse" color-interpolation-filters="sRGB">
<feFlood flood-opacity="0" result="BackgroundImageFix"></feFlood>
<feBlend mode="normal" in="SourceGraphic" in2="BackgroundImageFix" result="shape"></feBlend>
<feColorMatrix in="SourceAlpha" type="matrix" values="0 0 0 0 0 0 0 0 0 0 0 0 0 0 0 0 0 0 127 0" result="hardAlpha"></feColorMatrix>
<feOffset dx="8" dy="-8"></feOffset>
<feComposite in2="hardAlpha" operator="arithmetic" k2="-1" k3="1"></feComposite>
<feColorMatrix type="matrix" values="0 0 0 0 0 0 0 0 0 0 0 0 0 0 0 0 0 0 0.25 0"></feColorMatrix>
<feBlend mode="normal" in2="shape" result="effect1_innerShadow_360_2095"></feBlend>
<feColorMatrix in="SourceAlpha" type="matrix" values="0 0 0 0 0 0 0 0 0 0 0 0 0 0 0 0 0 0 127 0" result="hardAlpha"></feColorMatrix>
<feOffset dx="-8" dy="12"></feOffset>
<feComposite in2="hardAlpha" operator="arithmetic" k2="-1" k3="1"></feComposite>
<feColorMatrix type="matrix" values="0 0 0 0 1 0 0 0 0 1 0 0 0 0 1 0 0 0 0.6 0"></feColorMatrix>
<feBlend mode="normal" in2="effect1_innerShadow_360_2095" result="effect2_innerShadow_360_2095"></feBlend>
</filter>
<filter id="SvgjsFilter1011" x="0" y="221" width="69" height="56" filterUnits="userSpaceOnUse" color-interpolation-filters="sRGB">
<feFlood flood-opacity="0" result="BackgroundImageFix"></feFlood>
<feBlend mode="normal" in="SourceGraphic" in2="BackgroundImageFix" result="shape"></feBlend>
<feColorMatrix in="SourceAlpha" type="matrix" values="0 0 0 0 0 0 0 0 0 0 0 0 0 0 0 0 0 0 127 0" result="hardAlpha"></feColorMatrix>
<feOffset dx="8" dy="-8"></feOffset>
<feComposite in2="hardAlpha" operator="arithmetic" k2="-1" k3="1"></feComposite>
<feColorMatrix type="matrix" values="0 0 0 0 0 0 0 0 0 0 0 0 0 0 0 0 0 0 0.25 0"></feColorMatrix>
<feBlend mode="normal" in2="shape" result="effect1_innerShadow_360_2095"></feBlend>
<feColorMatrix in="SourceAlpha" type="matrix" values="0 0 0 0 0 0 0 0 0 0 0 0 0 0 0 0 0 0 127 0" result="hardAlpha"></feColorMatrix>
<feOffset dx="-10" dy="12"></feOffset>
<feComposite in2="hardAlpha" operator="arithmetic" k2="-1" k3="1"></feComposite>
<feColorMatrix type="matrix" values="0 0 0 0 1 0 0 0 0 1 0 0 0 0 1 0 0 0 0.6 0"></feColorMatrix>
<feBlend mode="normal" in2="effect1_innerShadow_360_2095" result="effect2_innerShadow_360_2095"></feBlend>
</filter>
<filter id="SvgjsFilter1010" x="39" y="221" width="48" height="56" filterUnits="userSpaceOnUse" color-interpolation-filters="sRGB">
<feFlood flood-opacity="0" result="BackgroundImageFix"></feFlood>
<feBlend mode="normal" in="SourceGraphic" in2="BackgroundImageFix" result="shape"></feBlend>
<feColorMatrix in="SourceAlpha" type="matrix" values="0 0 0 0 0 0 0 0 0 0 0 0 0 0 0 0 0 0 127 0" result="hardAlpha"></feColorMatrix>
<feOffset dx="8" dy="-8"></feOffset>
<feComposite in2="hardAlpha" operator="arithmetic" k2="-1" k3="1"></feComposite>
<feColorMatrix type="matrix" values="0 0 0 0 0 0 0 0 0 0 0 0 0 0 0 0 0 0 0.25 0"></feColorMatrix>
<feBlend mode="normal" in2="shape" result="effect1_innerShadow_360_2095"></feBlend>
<feColorMatrix in="SourceAlpha" type="matrix" values="0 0 0 0 0 0 0 0 0 0 0 0 0 0 0 0 0 0 127 0" result="hardAlpha"></feColorMatrix>
<feOffset dx="-8" dy="12"></feOffset>
<feComposite in2="hardAlpha" operator="arithmetic" k2="-1" k3="1"></feComposite>
<feColorMatrix type="matrix" values="0 0 0 0 1 0 0 0 0 1 0 0 0 0 1 0 0 0 0.6 0"></feColorMatrix>
<feBlend mode="normal" in2="effect1_innerShadow_360_2095" result="effect2_innerShadow_360_2095"></feBlend>
</filter>
<filter id="SvgjsFilter1009" x="170" y="292" width="43" height="43" filterUnits="userSpaceOnUse" color-interpolation-filters="sRGB">
<feFlood flood-opacity="0" result="BackgroundImageFix"></feFlood>
<feColorMatrix in="SourceAlpha" type="matrix" values="0 0 0 0 0 0 0 0 0 0 0 0 0 0 0 0 0 0 127 0" result="hardAlpha"></feColorMatrix>
<feOffset dx="-4" dy="4"></feOffset>
<feComposite in2="hardAlpha" operator="out"></feComposite>
<feColorMatrix type="matrix" values="0 0 0 0 0.121569 0 0 0 0 0.12549 0 0 0 0 0.141176 0 0 0 0.25 0"></feColorMatrix>
<feBlend mode="normal" in2="BackgroundImageFix" result="effect1_dropShadow_360_2095"></feBlend>
<feBlend mode="normal" in="SourceGraphic" in2="effect1_dropShadow_360_2095" result="shape"></feBlend>
<feColorMatrix in="SourceAlpha" type="matrix" values="0 0 0 0 0 0 0 0 0 0 0 0 0 0 0 0 0 0 127 0" result="hardAlpha"></feColorMatrix>
<feOffset dx="8" dy="-8"></feOffset>
<feComposite in2="hardAlpha" operator="arithmetic" k2="-1" k3="1"></feComposite>
<feColorMatrix type="matrix" values="0 0 0 0 0 0 0 0 0 0 0 0 0 0 0 0 0 0 0.25 0"></feColorMatrix>
<feBlend mode="normal" in2="shape" result="effect2_innerShadow_360_2095"></feBlend>
<feColorMatrix in="SourceAlpha" type="matrix" values="0 0 0 0 0 0 0 0 0 0 0 0 0 0 0 0 0 0 127 0" result="hardAlpha"></feColorMatrix>
<feOffset dx="-8" dy="12"></feOffset>
<feComposite in2="hardAlpha" operator="arithmetic" k2="-1" k3="1"></feComposite>
<feColorMatrix type="matrix" values="0 0 0 0 1 0 0 0 0 1 0 0 0 0 1 0 0 0 0.6 0"></feColorMatrix>
<feBlend mode="normal" in2="effect2_innerShadow_360_2095" result="effect3_innerShadow_360_2095"></feBlend>
</filter>
<filter id="SvgjsFilter1008" x="220.42" y="130.812" width="50.3555" height="49.875" filterUnits="userSpaceOnUse" color-interpolation-filters="sRGB">
<feFlood flood-opacity="0" result="BackgroundImageFix"></feFlood>
<feColorMatrix in="SourceAlpha" type="matrix" values="0 0 0 0 0 0 0 0 0 0 0 0 0 0 0 0 0 0 127 0" result="hardAlpha"></feColorMatrix>
<feOffset dx="-4" dy="4"></feOffset>
<feComposite in2="hardAlpha" operator="out"></feComposite>
<feColorMatrix type="matrix" values="0 0 0 0 0.121569 0 0 0 0 0.12549 0 0 0 0 0.141176 0 0 0 0.25 0"></feColorMatrix>
<feBlend mode="normal" in2="BackgroundImageFix" result="effect1_dropShadow_360_2095"></feBlend>
<feBlend mode="normal" in="SourceGraphic" in2="effect1_dropShadow_360_2095" result="shape"></feBlend>
<feColorMatrix in="SourceAlpha" type="matrix" values="0 0 0 0 0 0 0 0 0 0 0 0 0 0 0 0 0 0 127 0" result="hardAlpha"></feColorMatrix>
<feOffset dx="8" dy="-8"></feOffset>
<feComposite in2="hardAlpha" operator="arithmetic" k2="-1" k3="1"></feComposite>
<feColorMatrix type="matrix" values="0 0 0 0 0 0 0 0 0 0 0 0 0 0 0 0 0 0 0.25 0"></feColorMatrix>
<feBlend mode="normal" in2="shape" result="effect2_innerShadow_360_2095"></feBlend>
<feColorMatrix in="SourceAlpha" type="matrix" values="0 0 0 0 0 0 0 0 0 0 0 0 0 0 0 0 0 0 127 0" result="hardAlpha"></feColorMatrix>
<feOffset dx="-8" dy="12"></feOffset>
<feComposite in2="hardAlpha" operator="arithmetic" k2="-1" k3="1"></feComposite>
<feColorMatrix type="matrix" values="0 0 0 0 1 0 0 0 0 1 0 0 0 0 1 0 0 0 0.6 0"></feColorMatrix>
<feBlend mode="normal" in2="effect2_innerShadow_360_2095" result="effect3_innerShadow_360_2095"></feBlend>
</filter>
<filter id="SvgjsFilter1007" x="267.711" y="260.529" width="49.8125" height="50.4023" filterUnits="userSpaceOnUse" color-interpolation-filters="sRGB">
<feFlood flood-opacity="0" result="BackgroundImageFix"></feFlood>
<feColorMatrix in="SourceAlpha" type="matrix" values="0 0 0 0 0 0 0 0 0 0 0 0 0 0 0 0 0 0 127 0" result="hardAlpha"></feColorMatrix>
<feOffset dx="-4" dy="4"></feOffset>
<feComposite in2="hardAlpha" operator="out"></feComposite>
<feColorMatrix type="matrix" values="0 0 0 0 0.121569 0 0 0 0 0.12549 0 0 0 0 0.141176 0 0 0 0.25 0"></feColorMatrix>
<feBlend mode="normal" in2="BackgroundImageFix" result="effect1_dropShadow_360_2095"></feBlend>
<feBlend mode="normal" in="SourceGraphic" in2="effect1_dropShadow_360_2095" result="shape"></feBlend>
<feColorMatrix in="SourceAlpha" type="matrix" values="0 0 0 0 0 0 0 0 0 0 0 0 0 0 0 0 0 0 127 0" result="hardAlpha"></feColorMatrix>
<feOffset dx="8" dy="-8"></feOffset>
<feComposite in2="hardAlpha" operator="arithmetic" k2="-1" k3="1"></feComposite>
<feColorMatrix type="matrix" values="0 0 0 0 0 0 0 0 0 0 0 0 0 0 0 0 0 0 0.25 0"></feColorMatrix>
<feBlend mode="normal" in2="shape" result="effect2_innerShadow_360_2095"></feBlend>
<feColorMatrix in="SourceAlpha" type="matrix" values="0 0 0 0 0 0 0 0 0 0 0 0 0 0 0 0 0 0 127 0" result="hardAlpha"></feColorMatrix>
<feOffset dx="-8" dy="12"></feOffset>
<feComposite in2="hardAlpha" operator="arithmetic" k2="-1" k3="1"></feComposite>
<feColorMatrix type="matrix" values="0 0 0 0 1 0 0 0 0 1 0 0 0 0 1 0 0 0 0.6 0"></feColorMatrix>
<feBlend mode="normal" in2="effect2_innerShadow_360_2095" result="effect3_innerShadow_360_2095"></feBlend>
</filter>
<filter id="SvgjsFilter1006" x="90" y="23" width="43" height="43" filterUnits="userSpaceOnUse" color-interpolation-filters="sRGB">
<feFlood flood-opacity="0" result="BackgroundImageFix"></feFlood>
<feColorMatrix in="SourceAlpha" type="matrix" values="0 0 0 0 0 0 0 0 0 0 0 0 0 0 0 0 0 0 127 0" result="hardAlpha"></feColorMatrix>
<feOffset dx="-4" dy="4"></feOffset>
<feComposite in2="hardAlpha" operator="out"></feComposite>
<feColorMatrix type="matrix" values="0 0 0 0 0.121569 0 0 0 0 0.12549 0 0 0 0 0.141176 0 0 0 0.25 0"></feColorMatrix>
<feBlend mode="normal" in2="BackgroundImageFix" result="effect1_dropShadow_360_2095"></feBlend>
<feBlend mode="normal" in="SourceGraphic" in2="effect1_dropShadow_360_2095" result="shape"></feBlend>
<feColorMatrix in="SourceAlpha" type="matrix" values="0 0 0 0 0 0 0 0 0 0 0 0 0 0 0 0 0 0 127 0" result="hardAlpha"></feColorMatrix>
<feOffset dx="8" dy="-8"></feOffset>
<feComposite in2="hardAlpha" operator="arithmetic" k2="-1" k3="1"></feComposite>
<feColorMatrix type="matrix" values="0 0 0 0 0 0 0 0 0 0 0 0 0 0 0 0 0 0 0.25 0"></feColorMatrix>
<feBlend mode="normal" in2="shape" result="effect2_innerShadow_360_2095"></feBlend>
<feColorMatrix in="SourceAlpha" type="matrix" values="0 0 0 0 0 0 0 0 0 0 0 0 0 0 0 0 0 0 127 0" result="hardAlpha"></feColorMatrix>
<feOffset dx="-8" dy="12"></feOffset>
<feComposite in2="hardAlpha" operator="arithmetic" k2="-1" k3="1"></feComposite>
<feColorMatrix type="matrix" values="0 0 0 0 1 0 0 0 0 1 0 0 0 0 1 0 0 0 0.6 0"></feColorMatrix>
<feBlend mode="normal" in2="effect2_innerShadow_360_2095" result="effect3_innerShadow_360_2095"></feBlend>
</filter>
<filter id="SvgjsFilter1005" x="267.953" y="60.4453" width="51.2012" height="47" filterUnits="userSpaceOnUse" color-interpolation-filters="sRGB">
<feFlood flood-opacity="0" result="BackgroundImageFix"></feFlood>
<feColorMatrix in="SourceAlpha" type="matrix" values="0 0 0 0 0 0 0 0 0 0 0 0 0 0 0 0 0 0 127 0" result="hardAlpha"></feColorMatrix>
<feOffset dx="-4" dy="4"></feOffset>
<feComposite in2="hardAlpha" operator="out"></feComposite>
<feColorMatrix type="matrix" values="0 0 0 0 0.121569 0 0 0 0 0.12549 0 0 0 0 0.141176 0 0 0 0.25 0"></feColorMatrix>
<feBlend mode="normal" in2="BackgroundImageFix" result="effect1_dropShadow_360_2095"></feBlend>
<feBlend mode="normal" in="SourceGraphic" in2="effect1_dropShadow_360_2095" result="shape"></feBlend>
<feColorMatrix in="SourceAlpha" type="matrix" values="0 0 0 0 0 0 0 0 0 0 0 0 0 0 0 0 0 0 127 0" result="hardAlpha"></feColorMatrix>
<feOffset dx="8" dy="-8"></feOffset>
<feComposite in2="hardAlpha" operator="arithmetic" k2="-1" k3="1"></feComposite>
<feColorMatrix type="matrix" values="0 0 0 0 0 0 0 0 0 0 0 0 0 0 0 0 0 0 0.25 0"></feColorMatrix>
<feBlend mode="normal" in2="shape" result="effect2_innerShadow_360_2095"></feBlend>
<feColorMatrix in="SourceAlpha" type="matrix" values="0 0 0 0 0 0 0 0 0 0 0 0 0 0 0 0 0 0 127 0" result="hardAlpha"></feColorMatrix>
<feOffset dx="-8" dy="12"></feOffset>
<feComposite in2="hardAlpha" operator="arithmetic" k2="-1" k3="1"></feComposite>
<feColorMatrix type="matrix" values="0 0 0 0 1 0 0 0 0 1 0 0 0 0 1 0 0 0 0.6 0"></feColorMatrix>
<feBlend mode="normal" in2="effect2_innerShadow_360_2095" result="effect3_innerShadow_360_2095"></feBlend>
</filter>
<filter id="SvgjsFilter1004" x="250" y="184" width="89" height="64" filterUnits="userSpaceOnUse" color-interpolation-filters="sRGB">
<feFlood flood-opacity="0" result="BackgroundImageFix"></feFlood>
<feBlend mode="normal" in="SourceGraphic" in2="BackgroundImageFix" result="shape"></feBlend>
<feColorMatrix in="SourceAlpha" type="matrix" values="0 0 0 0 0 0 0 0 0 0 0 0 0 0 0 0 0 0 127 0" result="hardAlpha"></feColorMatrix>
<feOffset dy="-16"></feOffset>
<feComposite in2="hardAlpha" operator="arithmetic" k2="-1" k3="1"></feComposite>
<feColorMatrix type="matrix" values="0 0 0 0 0 0 0 0 0 0 0 0 0 0 0 0 0 0 0.25 0"></feColorMatrix>
<feBlend mode="normal" in2="shape" result="effect1_innerShadow_360_2095"></feBlend>
<feColorMatrix in="SourceAlpha" type="matrix" values="0 0 0 0 0 0 0 0 0 0 0 0 0 0 0 0 0 0 127 0" result="hardAlpha"></feColorMatrix>
<feOffset dy="16"></feOffset>
<feComposite in2="hardAlpha" operator="arithmetic" k2="-1" k3="1"></feComposite>
<feColorMatrix type="matrix" values="0 0 0 0 1 0 0 0 0 1 0 0 0 0 1 0 0 0 0.25 0"></feColorMatrix>
<feBlend mode="normal" in2="effect1_innerShadow_360_2095" result="effect2_innerShadow_360_2095"></feBlend>
</filter>
<filter id="SvgjsFilter1003" x="250" y="184" width="32" height="64" filterUnits="userSpaceOnUse" color-interpolation-filters="sRGB">
<feFlood flood-opacity="0" result="BackgroundImageFix"></feFlood>
<feBlend mode="normal" in="SourceGraphic" in2="BackgroundImageFix" result="shape"></feBlend>
<feColorMatrix in="SourceAlpha" type="matrix" values="0 0 0 0 0 0 0 0 0 0 0 0 0 0 0 0 0 0 127 0" result="hardAlpha"></feColorMatrix>
<feOffset dx="-24" dy="8"></feOffset>
<feComposite in2="hardAlpha" operator="arithmetic" k2="-1" k3="1"></feComposite>
<feColorMatrix type="matrix" values="0 0 0 0 1 0 0 0 0 1 0 0 0 0 1 0 0 0 0.25 0"></feColorMatrix>
<feBlend mode="normal" in2="shape" result="effect1_innerShadow_360_2095"></feBlend>
</filter>
<filter id="SvgjsFilter1002" x="21.7109" y="57.5293" width="49.8125" height="50.4023" filterUnits="userSpaceOnUse" color-interpolation-filters="sRGB">
<feFlood flood-opacity="0" result="BackgroundImageFix"></feFlood>
<feColorMatrix in="SourceAlpha" type="matrix" values="0 0 0 0 0 0 0 0 0 0 0 0 0 0 0 0 0 0 127 0" result="hardAlpha"></feColorMatrix>
<feOffset dx="-4" dy="4"></feOffset>
<feComposite in2="hardAlpha" operator="out"></feComposite>
<feColorMatrix type="matrix" values="0 0 0 0 0.121569 0 0 0 0 0.12549 0 0 0 0 0.141176 0 0 0 0.25 0"></feColorMatrix>
<feBlend mode="normal" in2="BackgroundImageFix" result="effect1_dropShadow_360_2095"></feBlend>
<feBlend mode="normal" in="SourceGraphic" in2="effect1_dropShadow_360_2095" result="shape"></feBlend>
<feColorMatrix in="SourceAlpha" type="matrix" values="0 0 0 0 0 0 0 0 0 0 0 0 0 0 0 0 0 0 127 0" result="hardAlpha"></feColorMatrix>
<feOffset dx="8" dy="-8"></feOffset>
<feComposite in2="hardAlpha" operator="arithmetic" k2="-1" k3="1"></feComposite>
<feColorMatrix type="matrix" values="0 0 0 0 0 0 0 0 0 0 0 0 0 0 0 0 0 0 0.25 0"></feColorMatrix>
<feBlend mode="normal" in2="shape" result="effect2_innerShadow_360_2095"></feBlend>
<feColorMatrix in="SourceAlpha" type="matrix" values="0 0 0 0 0 0 0 0 0 0 0 0 0 0 0 0 0 0 127 0" result="hardAlpha"></feColorMatrix>
<feOffset dx="-8" dy="12"></feOffset>
<feComposite in2="hardAlpha" operator="arithmetic" k2="-1" k3="1"></feComposite>
<feColorMatrix type="matrix" values="0 0 0 0 1 0 0 0 0 1 0 0 0 0 1 0 0 0 0.6 0"></feColorMatrix>
<feBlend mode="normal" in2="effect2_innerShadow_360_2095" result="effect3_innerShadow_360_2095"></feBlend>
</filter>
<filter id="SvgjsFilter1001" x="-4" y="140" width="43" height="43" filterUnits="userSpaceOnUse" color-interpolation-filters="sRGB">
<feFlood flood-opacity="0" result="BackgroundImageFix"></feFlood>
<feColorMatrix in="SourceAlpha" type="matrix" values="0 0 0 0 0 0 0 0 0 0 0 0 0 0 0 0 0 0 127 0" result="hardAlpha"></feColorMatrix>
<feOffset dx="-4" dy="4"></feOffset>
<feComposite in2="hardAlpha" operator="out"></feComposite>
<feColorMatrix type="matrix" values="0 0 0 0 0.121569 0 0 0 0 0.12549 0 0 0 0 0.141176 0 0 0 0.25 0"></feColorMatrix>
<feBlend mode="normal" in2="BackgroundImageFix" result="effect1_dropShadow_360_2095"></feBlend>
<feBlend mode="normal" in="SourceGraphic" in2="effect1_dropShadow_360_2095" result="shape"></feBlend>
<feColorMatrix in="SourceAlpha" type="matrix" values="0 0 0 0 0 0 0 0 0 0 0 0 0 0 0 0 0 0 127 0" result="hardAlpha"></feColorMatrix>
<feOffset dx="8" dy="-8"></feOffset>
<feComposite in2="hardAlpha" operator="arithmetic" k2="-1" k3="1"></feComposite>
<feColorMatrix type="matrix" values="0 0 0 0 0 0 0 0 0 0 0 0 0 0 0 0 0 0 0.25 0"></feColorMatrix>
<feBlend mode="normal" in2="shape" result="effect2_innerShadow_360_2095"></feBlend>
<feColorMatrix in="SourceAlpha" type="matrix" values="0 0 0 0 0 0 0 0 0 0 0 0 0 0 0 0 0 0 127 0" result="hardAlpha"></feColorMatrix>
<feOffset dx="-8" dy="12"></feOffset>
<feComposite in2="hardAlpha" operator="arithmetic" k2="-1" k3="1"></feComposite>
<feColorMatrix type="matrix" values="0 0 0 0 1 0 0 0 0 1 0 0 0 0 1 0 0 0 0.6 0"></feColorMatrix>
<feBlend mode="normal" in2="effect2_innerShadow_360_2095" result="effect3_innerShadow_360_2095"></feBlend>
</filter>
<clipPath id="SvgjsClipPath1000">
<rect width="340" height="340" fill="white" transform="matrix(-1 0 0 1 340 0)"></rect>
</clipPath>
</defs>
</svg><style>@media (prefers-color-scheme: light) { :root { filter: none; } }
</style></svg>